<?xml version="1.0" standalone="no"?>
<!DOCTYPE svg PUBLIC "-//W3C//DTD SVG 20010904//EN"
 "http://www.w3.org/TR/2001/REC-SVG-20010904/DTD/svg10.dtd">
<svg version="1.0" xmlns="http://www.w3.org/2000/svg"
 width="1173.000000pt" height="1280.000000pt" viewBox="0 0 1173.000000 1280.000000"
 preserveAspectRatio="xMidYMid meet">
<metadata>
Created by potrace 1.15, written by Peter Selinger 2001-2017
</metadata>
<g transform="translate(0.000000,1280.000000) scale(0.100000,-0.100000)"
fill="#000000" stroke="none">
<path d="M9250 12789 c-241 -13 -488 -34 -1115 -99 -980 -101 -1143 -111
-1830 -111 -633 -1 -1047 20 -1795 91 -173 16 -391 36 -485 45 -93 8 -222 19
-285 25 -63 6 -243 14 -400 17 -399 8 -579 -13 -821 -96 -63 -22 -200 -69
-305 -105 -225 -77 -303 -111 -381 -165 -192 -131 -219 -241 -163 -661 22
-164 39 -229 82 -314 72 -143 255 -277 490 -361 77 -27 78 -28 97 -80 137
-366 163 -982 66 -1559 -68 -402 -115 -588 -365 -1441 -223 -761 -316 -1180
-385 -1725 -56 -452 -75 -675 -155 -1875 -75 -1141 -108 -1749 -111 -2087 -2
-191 10 -175 -149 -214 -262 -66 -503 -159 -683 -262 -290 -167 -450 -338
-515 -552 -81 -266 -32 -749 96 -946 117 -179 302 -277 582 -306 250 -25 453
10 1080 187 525 148 579 161 1000 238 475 88 562 97 979 104 450 7 442 8 1846
-121 482 -45 587 -52 1155 -76 563 -24 1084 -26 1347 -5 557 45 1070 189 2028
570 513 205 648 269 782 371 175 134 284 330 340 610 13 66 17 137 17 274 0
174 -1 190 -26 265 -15 44 -71 168 -124 275 -129 262 -133 271 -223 572 -192
638 -244 885 -245 1173 -1 197 7 245 89 520 95 317 114 406 185 849 142 895
271 1829 301 2181 8 96 10 249 5 485 -11 581 10 701 201 1180 183 460 213 578
250 970 24 260 24 810 0 1005 -21 167 -57 332 -103 473 -83 253 -193 381 -424
491 -234 111 -544 166 -1070 191 -244 11 -631 11 -860 -1z"/>
</g>
</svg>
